# 3ds Max Wavefront OBJ Exporter v0.97b - (c)2007 guruware
# File Created: 11.09.2014 15:46:32

mtllib box5.mtl

#
# object Box005
#

v  52.5354 1.3773 64.2563
v  55.5354 1.3773 64.2563
v  55.5354 1.3773 -35.7437
v  52.5354 1.3773 -35.7437
# 4 vertices

vn 0.0000 1.0000 -0.0000
# 1 vertex normals

vt 0.0000 0.0000 0.0000
vt 1.0000 0.0000 0.0000
vt 1.0000 1.0000 0.0000
vt 0.0000 1.0000 0.0000
# 4 texture coords

g Box005
usemtl wire_214229166
s 4
f 1/1/1 2/2/1 3/3/1 4/4/1 
# 1 polygons

