# 3ds Max Wavefront OBJ Exporter v0.97b - (c)2007 guruware
# File Created: 11.09.2014 15:57:35

mtllib race.mtl

#
# object Box001
#

v  -7.5822 1.3773 64.2563
v  -10.5822 1.3773 64.2563
v  -7.5822 1.3773 -35.7437
v  -10.5822 1.3773 -35.7437
# 4 vertices

vn 0.0000 1.0000 -0.0000
# 1 vertex normals

vt 0.0000 0.0000 0.0000
vt 1.0000 0.0000 0.0000
vt 1.0000 1.0000 0.0000
vt 0.0000 1.0000 0.0000
# 4 texture coords

g Box001
usemtl wire_214229166
s 4
f 1/1/1 2/2/1 3/3/1 4/4/1 
# 1 polygons

#
# object Box002
#

v  -10.5790 1.3721 -35.7427
v  -7.5790 1.3721 -35.7427
v  -7.1465 1.3721 -40.9749
v  -10.1010 1.3721 -41.4959
v  -5.7931 1.3721 -46.0261
v  -8.6122 1.3721 -47.0521
v  -3.5771 1.3721 -50.7655
v  -6.1752 1.3721 -52.2655
v  -0.5777 1.3721 -55.0491
v  -2.8759 1.3721 -56.9775
v  3.1200 1.3721 -58.7468
v  1.1916 1.3721 -61.0449
v  7.4036 1.3721 -61.7462
v  5.9036 1.3721 -64.3443
v  12.1430 1.3721 -63.9562
v  11.1170 1.3721 -66.7753
v  17.1942 1.3721 -65.3097
v  16.6732 1.3721 -68.2641
v  22.4036 1.3721 -65.7655
v  22.4036 1.3721 -68.7655
v  27.6131 1.3721 -65.3097
v  28.1340 1.3721 -68.2641
v  32.6642 1.3721 -63.9563
v  33.6903 1.3721 -66.7753
v  37.4036 1.3721 -61.7462
v  38.9036 1.3721 -64.3443
v  41.6872 1.3721 -58.7468
v  43.6156 1.3721 -61.0449
v  45.3849 1.3721 -55.0491
v  47.6831 1.3721 -56.9775
v  48.3844 1.3721 -50.7655
v  50.9824 1.3721 -52.2655
v  50.5944 1.3721 -46.0261
v  53.4135 1.3721 -47.0521
v  51.9478 1.3721 -40.9749
v  54.9023 1.3721 -41.4959
v  52.5322 1.3721 -35.7453
v  55.5322 1.3721 -35.7453
# 38 vertices

vn 0.0000 1.0000 -0.0000
# 1 vertex normals

vt 0.2500 0.2222 0.0000
vt 0.5000 0.2222 0.0000
vt 0.5000 0.2500 0.0000
vt 0.2500 0.2500 0.0000
vt 0.5000 0.2778 0.0000
vt 0.2500 0.2778 0.0000
vt 0.5000 0.3056 0.0000
vt 0.2500 0.3056 0.0000
vt 0.5000 0.3333 0.0000
vt 0.2500 0.3333 0.0000
vt 0.5000 0.3611 0.0000
vt 0.2500 0.3611 0.0000
vt 0.5000 0.3889 0.0000
vt 0.2500 0.3889 0.0000
vt 0.5000 0.4167 0.0000
vt 0.2500 0.4167 0.0000
vt 0.5000 0.4444 0.0000
vt 0.2500 0.4444 0.0000
vt 0.5000 0.4722 0.0000
vt 0.2500 0.4722 0.0000
vt 0.5000 0.5000 0.0000
vt 0.2500 0.5000 0.0000
vt 0.5000 0.5278 0.0000
vt 0.2500 0.5278 0.0000
vt 0.5000 0.5556 0.0000
vt 0.2500 0.5556 0.0000
vt 0.5000 0.5833 0.0000
vt 0.2500 0.5833 0.0000
vt 0.5000 0.6111 0.0000
vt 0.2500 0.6111 0.0000
vt 0.5000 0.6389 0.0000
vt 0.2500 0.6389 0.0000
vt 0.5000 0.6667 0.0000
vt 0.2500 0.6667 0.0000
vt 0.5000 0.6944 0.0000
vt 0.2500 0.6944 0.0000
vt 0.5000 0.7222 0.0000
vt 0.2500 0.7222 0.0000
# 38 texture coords

g Box002
usemtl wire_135059008
s 4
f 5/5/2 6/6/2 7/7/2 8/8/2 
f 8/8/2 7/7/2 9/9/2 10/10/2 
f 10/10/2 9/9/2 11/11/2 12/12/2 
f 12/12/2 11/11/2 13/13/2 14/14/2 
f 14/14/2 13/13/2 15/15/2 16/16/2 
f 16/16/2 15/15/2 17/17/2 18/18/2 
f 18/18/2 17/17/2 19/19/2 20/20/2 
f 20/20/2 19/19/2 21/21/2 22/22/2 
f 22/22/2 21/21/2 23/23/2 24/24/2 
f 24/24/2 23/23/2 25/25/2 26/26/2 
f 26/26/2 25/25/2 27/27/2 28/28/2 
f 28/28/2 27/27/2 29/29/2 30/30/2 
f 30/30/2 29/29/2 31/31/2 32/32/2 
f 32/32/2 31/31/2 33/33/2 34/34/2 
f 34/34/2 33/33/2 35/35/2 36/36/2 
f 36/36/2 35/35/2 37/37/2 38/38/2 
f 38/38/2 37/37/2 39/39/2 40/40/2 
f 40/40/2 39/39/2 41/41/2 42/42/2 
# 18 polygons

#
# object Box004
#

v  55.6951 1.3721 64.2548
v  52.6951 1.3721 64.2548
v  52.2519 1.3721 69.5064
v  55.2063 1.3721 70.0273
v  50.8985 1.3721 74.5575
v  53.7175 1.3721 75.5836
v  48.6884 1.3721 79.2969
v  51.2865 1.3721 80.7969
v  45.6890 1.3721 83.5806
v  47.9872 1.3721 85.5089
v  41.9913 1.3721 87.2783
v  43.9197 1.3721 89.5764
v  37.7077 1.3721 90.2777
v  39.2077 1.3721 92.8758
v  32.9683 1.3721 92.4877
v  33.9944 1.3721 95.3068
v  27.9171 1.3721 93.8412
v  28.4381 1.3721 96.7956
v  22.7077 1.3721 94.2969
v  22.7077 1.3721 97.2969
v  17.4982 1.3721 93.8412
v  16.9773 1.3721 96.7956
v  12.4471 1.3721 92.4877
v  11.4210 1.3721 95.3068
v  7.7077 1.3721 90.2777
v  6.2077 1.3721 92.8758
v  3.4241 1.3721 87.2783
v  1.4957 1.3721 89.5764
v  -0.2736 1.3721 83.5806
v  -2.5718 1.3721 85.5089
v  -3.2731 1.3721 79.2970
v  -5.8711 1.3721 80.7970
v  -5.4831 1.3721 74.5576
v  -8.3022 1.3721 75.5836
v  -6.8365 1.3721 69.5064
v  -9.7910 1.3721 70.0273
v  -7.4242 1.3772 64.2523
v  -10.4242 1.3772 64.2523
# 38 vertices

vn 0.0000 1.0000 -0.0000
vn 0.0002 1.0000 0.0009
vn 0.0001 1.0000 0.0009
vn 0.0001 1.0000 0.0018
vn -0.0000 1.0000 0.0017
# 5 vertex normals

vt 0.2500 0.2222 0.0000
vt 0.5000 0.2222 0.0000
vt 0.5000 0.2500 0.0000
vt 0.2500 0.2500 0.0000
vt 0.5000 0.2778 0.0000
vt 0.2500 0.2778 0.0000
vt 0.5000 0.3056 0.0000
vt 0.2500 0.3056 0.0000
vt 0.5000 0.3333 0.0000
vt 0.2500 0.3333 0.0000
vt 0.5000 0.3611 0.0000
vt 0.2500 0.3611 0.0000
vt 0.5000 0.3889 0.0000
vt 0.2500 0.3889 0.0000
vt 0.5000 0.4167 0.0000
vt 0.2500 0.4167 0.0000
vt 0.5000 0.4444 0.0000
vt 0.2500 0.4444 0.0000
vt 0.5000 0.4722 0.0000
vt 0.2500 0.4722 0.0000
vt 0.5000 0.5000 0.0000
vt 0.2500 0.5000 0.0000
vt 0.5000 0.5278 0.0000
vt 0.2500 0.5278 0.0000
vt 0.5000 0.5556 0.0000
vt 0.2500 0.5556 0.0000
vt 0.5000 0.5833 0.0000
vt 0.2500 0.5833 0.0000
vt 0.5000 0.6111 0.0000
vt 0.2500 0.6111 0.0000
vt 0.5000 0.6389 0.0000
vt 0.2500 0.6389 0.0000
vt 0.5000 0.6667 0.0000
vt 0.2500 0.6667 0.0000
vt 0.5000 0.6944 0.0000
vt 0.2500 0.6944 0.0000
vt 0.5000 0.7222 0.0000
vt 0.2500 0.7222 0.0000
# 38 texture coords

g Box004
usemtl wire_135059008
s 4
f 43/43/3 44/44/3 45/45/3 46/46/3 
f 46/46/3 45/45/3 47/47/3 48/48/3 
f 48/48/3 47/47/3 49/49/3 50/50/3 
f 50/50/3 49/49/3 51/51/3 52/52/3 
f 52/52/3 51/51/3 53/53/3 54/54/3 
f 54/54/3 53/53/3 55/55/3 56/56/3 
f 56/56/3 55/55/3 57/57/3 58/58/3 
f 58/58/3 57/57/3 59/59/3 60/60/3 
f 60/60/3 59/59/3 61/61/3 62/62/3 
f 62/62/3 61/61/3 63/63/3 64/64/3 
f 64/64/3 63/63/3 65/65/3 66/66/3 
f 66/66/3 65/65/3 67/67/3 68/68/3 
f 68/68/3 67/67/3 69/69/3 70/70/3 
f 70/70/3 69/69/3 71/71/3 72/72/3 
f 72/72/3 71/71/3 73/73/3 74/74/3 
f 74/74/3 73/73/3 75/75/3 76/76/3 
f 76/76/3 75/75/3 77/77/4 78/78/5 
f 78/78/5 77/77/4 79/79/6 80/80/7 
# 18 polygons

#
# object Box003
#

v  55.5354 1.3773 64.2563
v  52.5354 1.3773 64.2563
v  55.5354 1.3773 -35.7437
v  52.5354 1.3773 -35.7437
# 4 vertices

vn 0.0000 1.0000 -0.0000
# 1 vertex normals

vt 0.0000 0.0000 0.0000
vt 1.0000 0.0000 0.0000
vt 1.0000 1.0000 0.0000
vt 0.0000 1.0000 0.0000
# 4 texture coords

g Box003
usemtl wire_214229166
s 4
f 81/81/8 82/82/8 83/83/8 84/84/8 
# 1 polygons

